Coordinates
version=1
nRows=27
nColumns=12
inDegrees=yes

Units are S.I. units (second, meters, Newtons, ...)
Angles are in degrees

endheader
time	SC_y	SC_z	SC_x	AC_y	AC_z	AC_x	GH_y	GH_z	GH_yy	EL_x	PS_y
       0.0              -12.94          27.03          52.06          64.48        -0.2485         -6.094         -54.84         -16.03         -2.448          43.67          79.85
   0.02667              -12.94          27.03          52.06          64.48        -0.2509          -6.09         -54.81         -16.02         -2.451          43.68          79.86
   0.05333              -12.95          27.03          52.05          64.47        -0.2535         -6.087         -54.78          -16.0         -2.454          43.69          79.86
      0.08              -12.95          27.03          52.05          64.47        -0.2562         -6.083         -54.75         -15.99         -2.457          43.71          79.87
    0.1067              -12.95          27.03          52.04          64.47        -0.2592         -6.079         -54.72         -15.97          -2.46          43.72          79.88
    0.1333              -12.96          27.03          52.04          64.47        -0.2623         -6.075         -54.68         -15.96         -2.464          43.73          79.89
      0.16              -12.96          27.04          52.03          64.46        -0.2656          -6.07         -54.64         -15.94         -2.467          43.75          79.91
    0.1867              -12.96          27.04          52.03          64.46        -0.2692         -6.065          -54.6         -15.92         -2.471          43.77          79.92
    0.2133              -12.97          27.04          52.02          64.46         -0.273          -6.06         -54.55          -15.9         -2.475          43.79          79.93
      0.24              -12.97          27.04          52.01          64.45         -0.277         -6.054         -54.51         -15.88          -2.48           43.8          79.94
    0.2667              -12.98          27.04           52.0          64.45        -0.2814         -6.048         -54.45         -15.86         -2.485          43.83          79.96
    0.2933              -12.98          27.05          51.99          64.44        -0.2862         -6.042          -54.4         -15.84          -2.49          43.85          79.97
      0.32              -12.99          27.05          51.98          64.44        -0.2912         -6.035         -54.34         -15.81         -2.496          43.87          79.99
    0.3466              -12.99          27.05          51.97          64.43        -0.2967         -6.027         -54.27         -15.78         -2.502           43.9          80.01
    0.3733               -13.0          27.05          51.96          64.43        -0.3027         -6.019          -54.2         -15.75         -2.509          43.93          80.03
       0.4              -13.01          27.06          51.95          64.42        -0.3091          -6.01         -54.13         -15.72         -2.516          43.96          80.05
    0.4266              -13.01          27.06          51.94          64.42        -0.3162           -6.0         -54.05         -15.68         -2.524          43.99          80.07
    0.4533              -13.02          27.06          51.93          64.41        -0.3238          -5.99         -53.96         -15.64         -2.532          44.03           80.1
      0.48              -13.03          27.07          51.91           64.4        -0.3321         -5.978         -53.86          -15.6         -2.542          44.07          80.13
    0.5066              -13.04          27.07          51.89          64.39        -0.3413         -5.966         -53.75         -15.55         -2.552          44.11          80.16
    0.5333              -13.05          27.07          51.88          64.38        -0.3513         -5.952         -53.63          -15.5         -2.563          44.16          80.19
      0.56              -13.06          27.08          51.86          64.37        -0.3624         -5.937          -53.5         -15.45         -2.575          44.21          80.23
    0.5866              -13.08          27.08          51.83          64.36        -0.3745          -5.92         -53.36         -15.38         -2.589          44.27          80.27
    0.6133              -13.09          27.09          51.81          64.35        -0.3881         -5.901          -53.2         -15.31         -2.604          44.33          80.32
      0.64              -13.11           27.1          51.78          64.34        -0.4031          -5.88         -53.02         -15.24         -2.621           44.4          80.37
    0.6666              -13.13           27.1          51.75          64.32        -0.4198         -5.857         -52.82         -15.15          -2.64          44.48          80.42
    0.6933              -13.15          27.11          51.72          64.31        -0.4386         -5.831          -52.6         -15.06         -2.661          44.57          80.49
